<svg xmlns="http://www.w3.org/2000/svg" viewBox="0 0 16 16" shape-rendering="crispEdges"><rect x="8" y="2" width="1" height="1" fill="#6b4423"/><rect x="9" y="2" width="1" height="1" fill="#6b4423"/><rect x="8" y="3" width="1" height="1" fill="#8a5a2b"/><rect x="9" y="3" width="1" height="1" fill="#8a5a2b"/><rect x="8" y="4" width="1" height="1" fill="#a8743c"/><rect x="9" y="4" width="1" height="1" fill="#8a5a2b"/><rect x="8" y="5" width="1" height="1" fill="#8a5a2b"/><rect x="9" y="5" width="1" height="1" fill="#8a5a2b"/><rect x="8" y="6" width="1" height="1" fill="#8a5a2b"/><rect x="9" y="6" width="1" height="1" fill="#8a5a2b"/><rect x="7" y="7" width="1" height="1" fill="#a88418"/><rect x="8" y="7" width="1" height="1" fill="#c9a227"/><rect x="9" y="7" width="1" height="1" fill="#c9a227"/><rect x="10" y="7" width="1" height="1" fill="#c9a227"/><rect x="7" y="8" width="1" height="1" fill="#c9a227"/><rect x="8" y="8" width="1" height="1" fill="#c9a227"/><rect x="9" y="8" width="1" height="1" fill="#c9a227"/><rect x="10" y="8" width="1" height="1" fill="#a88418"/><rect x="6" y="9" width="1" height="1" fill="#e8e8e8"/><rect x="7" y="9" width="1" height="1" fill="#e8e8e8"/><rect x="8" y="9" width="1" height="1" fill="#e8e8e8"/><rect x="9" y="9" width="1" height="1" fill="#e8e8e8"/><rect x="10" y="9" width="1" height="1" fill="#e8e8e8"/><rect x="11" y="9" width="1" height="1" fill="#e8e8e8"/><rect x="6" y="10" width="1" height="1" fill="#e8e8e8"/><rect x="7" y="10" width="1" height="1" fill="#e8e8e8"/><rect x="8" y="10" width="1" height="1" fill="#e8e8e8"/><rect x="9" y="10" width="1" height="1" fill="#e8e8e8"/><rect x="10" y="10" width="1" height="1" fill="#e8e8e8"/><rect x="11" y="10" width="1" height="1" fill="#e8e8e8"/><rect x="5" y="11" width="1" height="1" fill="#b8b8b8"/><rect x="6" y="11" width="1" height="1" fill="#d8d8d8"/><rect x="7" y="11" width="1" height="1" fill="#d8d8d8"/><rect x="8" y="11" width="1" height="1" fill="#d8d8d8"/><rect x="9" y="11" width="1" height="1" fill="#d8d8d8"/><rect x="10" y="11" width="1" height="1" fill="#d8d8d8"/><rect x="11" y="11" width="1" height="1" fill="#d8d8d8"/><rect x="12" y="11" width="1" height="1" fill="#b8b8b8"/><rect x="5" y="12" width="1" height="1" fill="#d8d8d8"/><rect x="6" y="12" width="1" height="1" fill="#d8d8d8"/><rect x="7" y="12" width="1" height="1" fill="#d8d8d8"/><rect x="8" y="12" width="1" height="1" fill="#d8d8d8"/><rect x="9" y="12" width="1" height="1" fill="#d8d8d8"/><rect x="10" y="12" width="1" height="1" fill="#d8d8d8"/><rect x="11" y="12" width="1" height="1" fill="#d8d8d8"/><rect x="12" y="12" width="1" height="1" fill="#d8d8d8"/><rect x="5" y="13" width="1" height="1" fill="#d8d8d8"/><rect x="6" y="13" width="1" height="1" fill="#b8b8b8"/><rect x="7" y="13" width="1" height="1" fill="#b8b8b8"/><rect x="8" y="13" width="1" height="1" fill="#b8b8b8"/><rect x="9" y="13" width="1" height="1" fill="#b8b8b8"/><rect x="10" y="13" width="1" height="1" fill="#d8d8d8"/><rect x="11" y="13" width="1" height="1" fill="#d8d8d8"/><rect x="12" y="13" width="1" height="1" fill="#d8d8d8"/><rect x="7" y="14" width="1" height="1" fill="#a0a0a0"/><rect x="9" y="14" width="1" height="1" fill="#a0a0a0"/></svg>