<svg xmlns="http://www.w3.org/2000/svg" viewBox="0 0 16 16" shape-rendering="crispEdges"><rect x="6" y="2" width="1" height="1" fill="#f0c020"/><rect x="7" y="2" width="1" height="1" fill="#f0c020"/><rect x="8" y="2" width="1" height="1" fill="#f8e060"/><rect x="5" y="3" width="1" height="1" fill="#f0c020"/><rect x="6" y="3" width="1" height="1" fill="#f0c020"/><rect x="7" y="3" width="1" height="1" fill="#f8e060"/><rect x="8" y="3" width="1" height="1" fill="#f0c020"/><rect x="9" y="3" width="1" height="1" fill="#f0c020"/><rect x="5" y="4" width="1" height="1" fill="#f8e060"/><rect x="6" y="4" width="1" height="1" fill="#f8e060"/><rect x="7" y="4" width="1" height="1" fill="#f0c020"/><rect x="8" y="4" width="1" height="1" fill="#f0c020"/><rect x="9" y="4" width="1" height="1" fill="#d8a010"/><rect x="5" y="5" width="1" height="1" fill="#f0c020"/><rect x="6" y="5" width="1" height="1" fill="#f0c020"/><rect x="7" y="5" width="1" height="1" fill="#f0c020"/><rect x="8" y="5" width="1" height="1" fill="#f0c020"/><rect x="9" y="5" width="1" height="1" fill="#f0c020"/><rect x="5" y="6" width="1" height="1" fill="#f0c020"/><rect x="6" y="6" width="1" height="1" fill="#f0c020"/><rect x="7" y="6" width="1" height="1" fill="#d8a010"/><rect x="8" y="6" width="1" height="1" fill="#f0c020"/><rect x="9" y="6" width="1" height="1" fill="#f0c020"/><rect x="6" y="7" width="1" height="1" fill="#f0c020"/><rect x="7" y="7" width="1" height="1" fill="#f0c020"/><rect x="8" y="7" width="1" height="1" fill="#f0c020"/><rect x="7" y="8" width="1" height="1" fill="#3a7a2a"/><rect x="7" y="9" width="1" height="1" fill="#3a7a2a"/><rect x="6" y="10" width="1" height="1" fill="#2a5a1e"/><rect x="7" y="10" width="1" height="1" fill="#3a7a2a"/><rect x="7" y="11" width="1" height="1" fill="#3a7a2a"/></svg>