<svg xmlns="http://www.w3.org/2000/svg" viewBox="0 0 16 16" shape-rendering="crispEdges"><rect x="9" y="2" width="1" height="1" fill="#7a8a8a"/><rect x="6" y="3" width="1" height="1" fill="#7a8a8a"/><rect x="6" y="4" width="1" height="1" fill="#7a8a8a"/><rect x="7" y="4" width="1" height="1" fill="#7a8a8a"/><rect x="8" y="4" width="1" height="1" fill="#7a8a8a"/><rect x="11" y="4" width="1" height="1" fill="#5a9be5"/><rect x="3" y="5" width="1" height="1" fill="#e8a058"/><rect x="6" y="5" width="1" height="1" fill="#7a8a8a"/><rect x="7" y="5" width="1" height="1" fill="#7a8a8a"/><rect x="8" y="5" width="1" height="1" fill="#7a8a8a"/><rect x="6" y="6" width="1" height="1" fill="#7a8a8a"/><rect x="7" y="6" width="1" height="1" fill="#7a8a8a"/><rect x="8" y="6" width="1" height="1" fill="#7a8a8a"/><rect x="4" y="7" width="1" height="1" fill="#5a9be5"/><rect x="6" y="7" width="1" height="1" fill="#7a8a8a"/><rect x="7" y="7" width="1" height="1" fill="#a8e8e0"/><rect x="8" y="7" width="1" height="1" fill="#7a8a8a"/><rect x="2" y="8" width="1" height="1" fill="#3f7a3f"/><rect x="6" y="8" width="1" height="1" fill="#7a8a8a"/><rect x="7" y="8" width="1" height="1" fill="#7a8a8a"/><rect x="8" y="8" width="1" height="1" fill="#7a8a8a"/><rect x="2" y="9" width="1" height="1" fill="#3f7a3f"/><rect x="6" y="9" width="1" height="1" fill="#7a8a8a"/><rect x="7" y="9" width="1" height="1" fill="#7a8a8a"/><rect x="8" y="9" width="1" height="1" fill="#7a8a8a"/><rect x="13" y="9" width="1" height="1" fill="#3f7a3f"/><rect x="2" y="10" width="1" height="1" fill="#3f7a3f"/><rect x="6" y="10" width="1" height="1" fill="#7a8a8a"/><rect x="7" y="10" width="1" height="1" fill="#7a8a8a"/><rect x="8" y="10" width="1" height="1" fill="#7a8a8a"/><rect x="13" y="10" width="1" height="1" fill="#3f7a3f"/><rect x="2" y="11" width="1" height="1" fill="#3f7a3f"/><rect x="6" y="11" width="1" height="1" fill="#7a8a8a"/><rect x="7" y="11" width="1" height="1" fill="#7a8a8a"/><rect x="8" y="11" width="1" height="1" fill="#7a8a8a"/><rect x="13" y="11" width="1" height="1" fill="#3f7a3f"/><rect x="2" y="12" width="1" height="1" fill="#3f7a3f"/><rect x="4" y="12" width="1" height="1" fill="#8a8a7a"/><rect x="5" y="12" width="1" height="1" fill="#8a8a7a"/><rect x="6" y="12" width="1" height="1" fill="#8a8a7a"/><rect x="7" y="12" width="1" height="1" fill="#8a8a7a"/><rect x="8" y="12" width="1" height="1" fill="#8a8a7a"/><rect x="9" y="12" width="1" height="1" fill="#8a8a7a"/><rect x="10" y="12" width="1" height="1" fill="#8a8a7a"/><rect x="11" y="12" width="1" height="1" fill="#8a8a7a"/><rect x="12" y="12" width="1" height="1" fill="#8a8a7a"/><rect x="13" y="12" width="1" height="1" fill="#3f7a3f"/><rect x="2" y="13" width="1" height="1" fill="#3f7a3f"/><rect x="4" y="13" width="1" height="1" fill="#8a8a7a"/><rect x="5" y="13" width="1" height="1" fill="#8a8a7a"/><rect x="6" y="13" width="1" height="1" fill="#8a8a7a"/><rect x="7" y="13" width="1" height="1" fill="#8a8a7a"/><rect x="8" y="13" width="1" height="1" fill="#8a8a7a"/><rect x="9" y="13" width="1" height="1" fill="#8a8a7a"/><rect x="10" y="13" width="1" height="1" fill="#8a8a7a"/><rect x="11" y="13" width="1" height="1" fill="#8a8a7a"/><rect x="12" y="13" width="1" height="1" fill="#8a8a7a"/><rect x="13" y="13" width="1" height="1" fill="#3f7a3f"/><rect x="2" y="14" width="1" height="1" fill="#3f7a3f"/><rect x="13" y="14" width="1" height="1" fill="#3f7a3f"/></svg>