<svg xmlns="http://www.w3.org/2000/svg" viewBox="0 0 16 16" shape-rendering="crispEdges"><rect x="4" y="1" width="1" height="1" fill="#3a9b9b"/><rect x="5" y="1" width="1" height="1" fill="#3a9b9b"/><rect x="6" y="1" width="1" height="1" fill="#3a9b9b"/><rect x="7" y="1" width="1" height="1" fill="#3a9b9b"/><rect x="8" y="1" width="1" height="1" fill="#3a9b9b"/><rect x="9" y="1" width="1" height="1" fill="#3a9b9b"/><rect x="3" y="2" width="1" height="1" fill="#3a9b9b"/><rect x="4" y="2" width="1" height="1" fill="#3a9b9b"/><rect x="5" y="2" width="1" height="1" fill="#3a9b9b"/><rect x="6" y="2" width="1" height="1" fill="#3a9b9b"/><rect x="7" y="2" width="1" height="1" fill="#3a9b9b"/><rect x="8" y="2" width="1" height="1" fill="#3a9b9b"/><rect x="9" y="2" width="1" height="1" fill="#3a9b9b"/><rect x="10" y="2" width="1" height="1" fill="#3a9b9b"/><rect x="3" y="3" width="1" height="1" fill="#3a9b9b"/><rect x="4" y="3" width="1" height="1" fill="#d8fff8"/><rect x="5" y="3" width="1" height="1" fill="#3a9b9b"/><rect x="6" y="3" width="1" height="1" fill="#3a9b9b"/><rect x="7" y="3" width="1" height="1" fill="#3a9b9b"/><rect x="8" y="3" width="1" height="1" fill="#3a9b9b"/><rect x="9" y="3" width="1" height="1" fill="#d8fff8"/><rect x="10" y="3" width="1" height="1" fill="#3a9b9b"/><rect x="3" y="4" width="1" height="1" fill="#3a9b9b"/><rect x="4" y="4" width="1" height="1" fill="#3a9b9b"/><rect x="5" y="4" width="1" height="1" fill="#3a9b9b"/><rect x="6" y="4" width="1" height="1" fill="#3a9b9b"/><rect x="7" y="4" width="1" height="1" fill="#3a9b9b"/><rect x="8" y="4" width="1" height="1" fill="#3a9b9b"/><rect x="9" y="4" width="1" height="1" fill="#3a9b9b"/><rect x="10" y="4" width="1" height="1" fill="#3a9b9b"/><rect x="3" y="5" width="1" height="1" fill="#3a9b9b"/><rect x="4" y="5" width="1" height="1" fill="#8ad1d1"/><rect x="5" y="5" width="1" height="1" fill="#3a9b9b"/><rect x="6" y="5" width="1" height="1" fill="#3a9b9b"/><rect x="7" y="5" width="1" height="1" fill="#3a9b9b"/><rect x="8" y="5" width="1" height="1" fill="#3a9b9b"/><rect x="9" y="5" width="1" height="1" fill="#3a9b9b"/><rect x="10" y="5" width="1" height="1" fill="#3a9b9b"/><rect x="11" y="5" width="1" height="1" fill="#3a9b9b"/><rect x="4" y="6" width="1" height="1" fill="#3a9b9b"/><rect x="5" y="6" width="1" height="1" fill="#3a9b9b"/><rect x="6" y="6" width="1" height="1" fill="#3a9b9b"/><rect x="7" y="6" width="1" height="1" fill="#3a9b9b"/><rect x="8" y="6" width="1" height="1" fill="#3a9b9b"/><rect x="9" y="6" width="1" height="1" fill="#3a9b9b"/><rect x="4" y="7" width="1" height="1" fill="#2a7a7a"/><rect x="5" y="7" width="1" height="1" fill="#2a7a7a"/><rect x="6" y="7" width="1" height="1" fill="#2a7a7a"/><rect x="7" y="7" width="1" height="1" fill="#2a7a7a"/><rect x="8" y="7" width="1" height="1" fill="#2a7a7a"/><rect x="9" y="7" width="1" height="1" fill="#2a7a7a"/><rect x="3" y="8" width="1" height="1" fill="#2a7a7a"/><rect x="5" y="8" width="1" height="1" fill="#8ad1d1"/><rect x="7" y="8" width="1" height="1" fill="#2a7a7a"/><rect x="8" y="8" width="1" height="1" fill="#2a7a7a"/><rect x="10" y="8" width="1" height="1" fill="#8ad1d1"/><rect x="11" y="8" width="1" height="1" fill="#2a7a7a"/><rect x="3" y="9" width="1" height="1" fill="#8ad1d1"/><rect x="6" y="9" width="1" height="1" fill="#2a7a7a"/><rect x="7" y="9" width="1" height="1" fill="#2a7a7a"/><rect x="10" y="9" width="1" height="1" fill="#8ad1d1"/><rect x="2" y="10" width="1" height="1" fill="#2a7a7a"/><rect x="6" y="10" width="1" height="1" fill="#8ad1d1"/><rect x="7" y="10" width="1" height="1" fill="#8ad1d1"/><rect x="11" y="10" width="1" height="1" fill="#2a7a7a"/></svg>